HIERARCHY
ROOT newVegas:Hips
{
	OFFSET 0.000000 96.479958 0.000000
	CHANNELS 6 Xposition Yposition Zposition Xrotation Yrotation Zrotation
	JOINT newVegas:Pelvis
	{
		OFFSET 0.000000 0.000000 0.000000
		CHANNELS 3 Xrotation Yrotation Zrotation
		JOINT newVegas:LeftUpLeg
		{
			OFFSET 18.735201 -5.666702 -4.541200
			CHANNELS 3 Xrotation Yrotation Zrotation
			JOINT newVegas:LeftLeg
			{
				OFFSET -0.021200 -31.938179 0.493100
				CHANNELS 3 Xrotation Yrotation Zrotation
				JOINT newVegas:LeftFoot
				{
					OFFSET 0.021200 -31.938179 -4.336299
					CHANNELS 3 Xrotation Yrotation Zrotation
					JOINT newVegas:LeftToeBase
					{
						OFFSET 0.943001 -26.722000 15.023500
						CHANNELS 3 Xrotation Yrotation Zrotation
						End Site
						{
							OFFSET 0.000000 30.670183 0.000000
						}
					}
				}
				JOINT newVegas:Left_PantLeg
				{
					OFFSET 0.663870 -9.044666 -1.108900
					CHANNELS 3 Xrotation Yrotation Zrotation
					End Site
					{
						OFFSET 1.415995 20.635357 0.000000
					}
				}
			}
		}
		JOINT newVegas:RightUpLeg
		{
			OFFSET -18.735201 -5.666702 -4.541200
			CHANNELS 3 Xrotation Yrotation Zrotation
			JOINT newVegas:RightLeg
			{
				OFFSET 0.018946 -31.938133 0.493100
				CHANNELS 3 Xrotation Yrotation Zrotation
				JOINT newVegas:RightFoot
				{
					OFFSET -0.018946 -31.938126 -4.336299
					CHANNELS 3 Xrotation Yrotation Zrotation
					JOINT newVegas:RightToeBase
					{
						OFFSET -0.943001 -26.722004 15.023500
						CHANNELS 3 Xrotation Yrotation Zrotation
						End Site
						{
							OFFSET 0.000000 30.670187 0.000000
						}
					}
				}
				JOINT newVegas:Right_PantLeg
				{
					OFFSET -0.661674 -9.044716 -1.108900
					CHANNELS 3 Xrotation Yrotation Zrotation
					End Site
					{
						OFFSET -1.415958 20.635269 0.000000
					}
				}
			}
		}
	}
	JOINT newVegas:Spine
	{
		OFFSET 0.000000 10.199997 -0.299500
		CHANNELS 3 Xrotation Yrotation Zrotation
		JOINT newVegas:Spine1
		{
			OFFSET 0.000000 11.900002 -1.516600
			CHANNELS 3 Xrotation Yrotation Zrotation
			JOINT newVegas:Spine2
			{
				OFFSET 0.000000 13.600006 -2.842500
				CHANNELS 3 Xrotation Yrotation Zrotation
				JOINT newVegas:Neck
				{
					OFFSET 0.000000 9.624100 -2.890100
					CHANNELS 3 Xrotation Yrotation Zrotation
					JOINT newVegas:Head
					{
						OFFSET 0.000000 14.068802 -1.351900
						CHANNELS 3 Xrotation Yrotation Zrotation
						JOINT newVegas:Hair_Back
						{
							OFFSET 0.000000 3.231903 -17.524799
							CHANNELS 3 Xrotation Yrotation Zrotation
							End Site
							{
								OFFSET 0.000000 19.849884 0.000000
							}
						}
						JOINT newVegas:Hair_Front
						{
							OFFSET 0.000000 31.260406 4.573800
							CHANNELS 3 Xrotation Yrotation Zrotation
							JOINT newVegas:Hair_Front1
							{
								OFFSET 0.000000 2.284103 11.993300
								CHANNELS 3 Xrotation Yrotation Zrotation
								JOINT newVegas:Hair_Front2
								{
									OFFSET 0.000000 2.284103 11.993300
									CHANNELS 3 Xrotation Yrotation Zrotation
									End Site
									{
										OFFSET 0.000000 12.208862 0.000000
									}
								}
							}
						}
						JOINT newVegas:Jowel
						{
							OFFSET 0.000000 -7.458206 6.864100
							CHANNELS 3 Xrotation Yrotation Zrotation
							End Site
							{
								OFFSET 0.000000 19.849884 0.000000
							}
						}
					}
				}
				JOINT newVegas:LeftShoulder
				{
					OFFSET 15.263000 10.923401 -0.547700
					CHANNELS 3 Xrotation Yrotation Zrotation
					JOINT newVegas:LeftArm
					{
						OFFSET 25.438599 -2.830597 -13.032500
						CHANNELS 3 Xrotation Yrotation Zrotation
						JOINT newVegas:LeftForeArm
						{
							OFFSET 29.960503 0.000000 0.000000
							CHANNELS 3 Xrotation Yrotation Zrotation
							JOINT newVegas:LeftHand
							{
								OFFSET 27.849251 0.000000 0.000000
								CHANNELS 3 Xrotation Yrotation Zrotation
								JOINT newVegas:LeftHandThumb1
								{
									OFFSET 4.487587 -3.305161 6.305391
									CHANNELS 3 Xrotation Yrotation Zrotation
									JOINT newVegas:LeftHandThumb2
									{
										OFFSET 5.480453 -3.164139 3.164143
										CHANNELS 3 Xrotation Yrotation Zrotation
										JOINT newVegas:LeftHandThumb3
										{
											OFFSET 5.159721 -2.978973 2.978967
											CHANNELS 3 Xrotation Yrotation Zrotation
											End Site
											{
												OFFSET 2.494507 5.926697 1.738678
											}
										}
									}
								}
								JOINT newVegas:LeftHandIndex1
								{
									OFFSET 18.578728 -0.527832 5.208049
									CHANNELS 3 Xrotation Yrotation Zrotation
									JOINT newVegas:LeftHandIndex2
									{
										OFFSET 3.192009 0.000000 0.000000
										CHANNELS 3 Xrotation Yrotation Zrotation
										JOINT newVegas:LeftHandIndex3
										{
											OFFSET 3.835129 0.000000 0.000000
											CHANNELS 3 Xrotation Yrotation Zrotation
											End Site
											{
												OFFSET -0.034599 3.816971 0.371180
											}
										}
									}
								}
								JOINT newVegas:LeftHandMiddle1
								{
									OFFSET 18.476105 0.000000 0.000000
									CHANNELS 3 Xrotation Yrotation Zrotation
									JOINT newVegas:LeftHandMiddle2
									{
										OFFSET 3.324875 0.000000 0.000000
										CHANNELS 3 Xrotation Yrotation Zrotation
										JOINT newVegas:LeftHandMiddle3
										{
											OFFSET 4.596550 0.000000 0.000000
											CHANNELS 3 Xrotation Yrotation Zrotation
											End Site
											{
												OFFSET 0.057701 4.578827 0.399218
											}
										}
									}
								}
								JOINT newVegas:LeftHandRing1
								{
									OFFSET 17.732719 0.121887 -4.201567
									CHANNELS 3 Xrotation Yrotation Zrotation
									JOINT newVegas:LeftHandRing2
									{
										OFFSET 2.733170 0.000000 0.000000
										CHANNELS 3 Xrotation Yrotation Zrotation
										JOINT newVegas:LeftHandRing3
										{
											OFFSET 3.178268 0.000000 0.000000
											CHANNELS 3 Xrotation Yrotation Zrotation
											End Site
											{
												OFFSET 0.119102 3.170624 0.185394
											}
										}
									}
								}
								JOINT newVegas:LeftHandPinky1
								{
									OFFSET 15.989624 -0.606689 -7.535461
									CHANNELS 3 Xrotation Yrotation Zrotation
									JOINT newVegas:LeftHandPinky2
									{
										OFFSET 2.538986 0.000000 0.000000
										CHANNELS 3 Xrotation Yrotation Zrotation
										JOINT newVegas:LeftHandPinky3
										{
											OFFSET 2.593102 0.000000 0.000000
											CHANNELS 3 Xrotation Yrotation Zrotation
											End Site
											{
												OFFSET -0.150902 2.584198 0.152708
											}
										}
									}
								}
							}
							JOINT newVegas:Left_Sleeve
							{
								OFFSET 0.267448 -0.649796 0.577675
								CHANNELS 3 Xrotation Yrotation Zrotation
								End Site
								{
									OFFSET 0.000000 15.991241 0.000000
								}
							}
							JOINT newVegas:Left_CapeC
							{
								OFFSET 15.715958 -8.608795 -6.935905
								CHANNELS 3 Xrotation Yrotation Zrotation
								JOINT newVegas:Left_CapeC1
								{
									OFFSET 0.000000 -8.688499 0.000000
									CHANNELS 3 Xrotation Yrotation Zrotation
									End Site
									{
										OFFSET 0.000000 8.688499 0.000000
									}
								}
							}
						}
						JOINT newVegas:Left_CapeB
						{
							OFFSET 26.118385 -8.608795 -7.079235
							CHANNELS 3 Xrotation Yrotation Zrotation
							JOINT newVegas:Left_CapeB1
							{
								OFFSET 0.000000 -8.688499 0.000000
								CHANNELS 3 Xrotation Yrotation Zrotation
								End Site
								{
									OFFSET 0.000000 8.688499 0.000000
								}
							}
						}
						JOINT newVegas:Left_CapeA
						{
							OFFSET 5.115639 -8.608795 -10.395809
							CHANNELS 3 Xrotation Yrotation Zrotation
							JOINT newVegas:Left_CapeA1
							{
								OFFSET 0.000000 -8.688499 0.000000
								CHANNELS 3 Xrotation Yrotation Zrotation
								End Site
								{
									OFFSET 0.000000 8.688499 0.000000
								}
							}
						}
					}
				}
				JOINT newVegas:RightShoulder
				{
					OFFSET -15.263000 10.923401 -0.547700
					CHANNELS 3 Xrotation Yrotation Zrotation
					JOINT newVegas:RightArm
					{
						OFFSET -25.438599 -2.830597 -13.032500
						CHANNELS 3 Xrotation Yrotation Zrotation
						JOINT newVegas:RightForeArm
						{
							OFFSET -29.960503 0.000000 0.000000
							CHANNELS 3 Xrotation Yrotation Zrotation
							JOINT newVegas:RightHand
							{
								OFFSET -27.849251 0.000000 0.000000
								CHANNELS 3 Xrotation Yrotation Zrotation
								JOINT newVegas:RightHandThumb1
								{
									OFFSET -4.487587 -3.305161 6.305391
									CHANNELS 3 Xrotation Yrotation Zrotation
									JOINT newVegas:RightHandThumb2
									{
										OFFSET -5.480453 -3.164139 3.164143
										CHANNELS 3 Xrotation Yrotation Zrotation
										JOINT newVegas:RightHandThumb3
										{
											OFFSET -5.159721 -2.978973 2.978967
											CHANNELS 3 Xrotation Yrotation Zrotation
											End Site
											{
												OFFSET -2.494507 5.926697 1.738678
											}
										}
									}
								}
								JOINT newVegas:RightHandIndex1
								{
									OFFSET -18.578728 -0.527832 5.208049
									CHANNELS 3 Xrotation Yrotation Zrotation
									JOINT newVegas:RightHandIndex2
									{
										OFFSET -3.192009 0.000000 0.000000
										CHANNELS 3 Xrotation Yrotation Zrotation
										JOINT newVegas:RightHandIndex3
										{
											OFFSET -3.835129 0.000000 0.000000
											CHANNELS 3 Xrotation Yrotation Zrotation
											End Site
											{
												OFFSET 0.034599 3.816971 0.371180
											}
										}
									}
								}
								JOINT newVegas:RightHandMiddle1
								{
									OFFSET -18.476105 0.000000 0.000000
									CHANNELS 3 Xrotation Yrotation Zrotation
									JOINT newVegas:RightHandMiddle2
									{
										OFFSET -3.324875 0.000000 0.000000
										CHANNELS 3 Xrotation Yrotation Zrotation
										JOINT newVegas:RightHandMiddle3
										{
											OFFSET -4.596550 0.000000 0.000000
											CHANNELS 3 Xrotation Yrotation Zrotation
											End Site
											{
												OFFSET -0.057701 4.578827 0.399218
											}
										}
									}
								}
								JOINT newVegas:RightHandRing1
								{
									OFFSET -17.732719 0.121887 -4.201567
									CHANNELS 3 Xrotation Yrotation Zrotation
									JOINT newVegas:RightHandRing2
									{
										OFFSET -2.733170 0.000000 0.000000
										CHANNELS 3 Xrotation Yrotation Zrotation
										JOINT newVegas:RightHandRing3
										{
											OFFSET -3.178268 0.000000 0.000000
											CHANNELS 3 Xrotation Yrotation Zrotation
											End Site
											{
												OFFSET -0.119102 3.170624 0.185394
											}
										}
									}
								}
								JOINT newVegas:RightHandPinky1
								{
									OFFSET -15.989624 -0.606689 -7.535461
									CHANNELS 3 Xrotation Yrotation Zrotation
									JOINT newVegas:RightHandPinky2
									{
										OFFSET -2.538986 0.000000 0.000000
										CHANNELS 3 Xrotation Yrotation Zrotation
										JOINT newVegas:RightHandPinky3
										{
											OFFSET -2.593102 0.000000 0.000000
											CHANNELS 3 Xrotation Yrotation Zrotation
											End Site
											{
												OFFSET 0.150902 2.584198 0.152708
											}
										}
									}
								}
							}
							JOINT newVegas:Right_CapeC
							{
								OFFSET -15.715958 -8.608795 -6.935905
								CHANNELS 3 Xrotation Yrotation Zrotation
								JOINT newVegas:Right_CapeC1
								{
									OFFSET 0.000000 -8.688499 0.000000
									CHANNELS 3 Xrotation Yrotation Zrotation
									End Site
									{
										OFFSET 0.000000 8.688499 0.000000
									}
								}
							}
							JOINT newVegas:Right_Sleeve
							{
								OFFSET -0.267448 -0.649994 0.577675
								CHANNELS 3 Xrotation Yrotation Zrotation
								End Site
								{
									OFFSET 0.000000 15.991302 0.000000
								}
							}
						}
						JOINT newVegas:Right_CapeA
						{
							OFFSET -5.115540 -8.608795 -10.395824
							CHANNELS 3 Xrotation Yrotation Zrotation
							JOINT newVegas:Right_CapeA1
							{
								OFFSET 0.000000 -8.688499 0.000000
								CHANNELS 3 Xrotation Yrotation Zrotation
								End Site
								{
									OFFSET 0.000000 8.688499 0.000000
								}
							}
						}
						JOINT newVegas:Right_CapeB
						{
							OFFSET -26.118187 -8.608795 -7.079266
							CHANNELS 3 Xrotation Yrotation Zrotation
							JOINT newVegas:Right_CapeB1
							{
								OFFSET 0.000000 -8.688499 0.000000
								CHANNELS 3 Xrotation Yrotation Zrotation
								End Site
								{
									OFFSET 0.000000 8.688499 0.000000
								}
							}
						}
					}
				}
				JOINT newVegas:Left_Collar
				{
					OFFSET 18.625099 8.655502 8.828100
					CHANNELS 3 Xrotation Yrotation Zrotation
					JOINT newVegas:Left_Collar1
					{
						OFFSET 14.783401 10.540405 -1.259500
						CHANNELS 3 Xrotation Yrotation Zrotation
						End Site
						{
							OFFSET 0.000000 18.199875 0.000000
						}
					}
				}
				JOINT newVegas:Collar_Back
				{
					OFFSET 0.000000 15.630707 -20.132601
					CHANNELS 3 Xrotation Yrotation Zrotation
					End Site
					{
						OFFSET 0.000000 22.523010 0.000000
					}
				}
				JOINT newVegas:Left_Peck
				{
					OFFSET 17.239599 -5.132599 25.482599
					CHANNELS 3 Xrotation Yrotation Zrotation
					End Site
					{
						OFFSET 0.000000 22.523010 0.000000
					}
				}
				JOINT newVegas:Right_Peck
				{
					OFFSET -17.239599 -5.132202 25.482599
					CHANNELS 3 Xrotation Yrotation Zrotation
					End Site
					{
						OFFSET 0.000000 22.523010 0.000000
					}
				}
				JOINT newVegas:Right_Collar
				{
					OFFSET -18.625099 8.655792 8.828100
					CHANNELS 3 Xrotation Yrotation Zrotation
					JOINT newVegas:Right_Collar1
					{
						OFFSET -14.783401 10.539993 -1.259500
						CHANNELS 3 Xrotation Yrotation Zrotation
						End Site
						{
							OFFSET 0.000000 18.199631 0.000000
						}
					}
				}
			}
		}
		JOINT newVegas:Belly
		{
			OFFSET 0.000000 -6.540398 9.014299
			CHANNELS 3 Xrotation Yrotation Zrotation
			End Site
			{
				OFFSET 0.000000 11.566666 0.000000
			}
		}
	}
	JOINT newVegas:ElvisFacialAnim_Joint
	{
		OFFSET 1.000000 -95.330101 -8.825800
		CHANNELS 3 Xrotation Yrotation Zrotation
		End Site
		{
			OFFSET 0.000000 35.315800 0.000000
		}
	}
}
MOTION
Frames: 4
Frame Time: 0.033333
-2.529503 83.444214 1.048891 9.511085 -61.528175 10.139692 -0.000000 -0.000001 -0.000000 -41.485616 6.898396 29.341622 42.476380 -8.855469 1.133462 -6.285691 -1.073339 -21.274702 -0.000000 0.000000 0.000000 0.000000 -0.000002 0.000000 -31.349243 -15.813432 -39.178115 41.611524 6.255672 -4.187890 -15.613013 -2.030436 28.893148 -0.000000 -0.000000 -0.000000 -0.000000 -0.000000 -0.000002 15.063788 -0.418059 -4.284001 5.872407 0.563923 -2.798210 5.868714 0.648185 -2.860163 -0.718911 0.306356 0.742058 -0.718886 0.306349 0.742049 -0.000000 0.000001 -0.000000 -0.718815 0.306358 0.742053 -0.718957 0.306347 0.742057 -0.000003 -0.000002 0.000001 -0.000000 0.000001 -0.000001 1.828099 -3.192691 -12.271568 -39.387416 26.350496 -34.911102 0.429375 -46.808482 0.416191 -10.315068 -0.130721 0.363031 40.109934 -15.297155 -0.360500 5.639792 28.097908 11.338858 0.000002 -0.000002 -0.000007 6.882246 2.840070 -61.140432 8.247996 7.640066 -89.897871 -0.000000 0.000000 0.000001 -2.345513 4.688865 -62.655217 8.754133 9.897070 -87.051307 0.000002 0.000000 0.000000 -9.042459 10.045654 -60.766185 8.524108 9.508801 -66.893049 -0.000003 -0.000001 0.000001 -17.946916 14.755003 -51.485857 8.868419 8.667036 -84.811996 -0.000003 -0.000003 0.000000 0.000001 -0.000003 0.000003 0.000001 -0.000003 0.000003 0.000000 -0.000002 0.000003 -0.000001 -0.000001 0.000004 -0.000000 -0.000002 0.000001 -0.000001 -0.000001 0.000004 -0.000002 -0.000001 0.000003 0.632604 7.257349 8.700390 7.936020 -9.680155 53.429903 -22.867439 36.194696 17.955444 -27.369927 10.432887 -17.813543 -2.346170 -6.100558 10.731440 2.364046 -23.806298 -8.771068 0.000001 -0.000000 -0.000000 -0.054727 0.532108 0.738738 0.019765 -0.087317 5.078501 -0.000001 -0.000000 0.000004 0.348276 -5.918538 2.583826 1.432621 -4.204219 24.052106 -0.000000 0.000001 0.000001 1.205839 -11.756070 4.154793 1.794849 -3.771870 26.865407 0.000001 0.000001 0.000001 2.126209 -19.166877 11.319973 3.354767 -2.122214 18.828538 -0.000000 -0.000004 -0.000001 -0.000001 -0.000001 -0.000002 -0.000002 -0.000001 -0.000002 -0.000001 -0.000001 -0.000000 -0.000001 -0.000001 -0.000002 -0.000001 0.000000 -0.000003 -0.000001 -0.000001 -0.000002 -0.000001 -0.000000 -0.000003 -0.000000 0.000001 0.000000 -0.000000 0.000001 0.000000 -0.000000 0.000001 0.000000 -0.000000 0.000001 0.000000 -0.000000 0.000001 0.000000 -0.000000 0.000001 0.000000 -0.000000 0.000001 0.000000 -0.000002 0.000000 -0.000000 -0.000000 -0.000001 -0.000000 
-2.941762 82.691833 2.567596 15.376327 -62.124498 18.030914 -0.000000 -0.000000 0.000000 -40.096062 4.084839 25.726160 43.903008 -5.516430 -1.990777 -8.908512 1.726845 -20.574164 0.000000 0.000002 -0.000000 -0.000001 0.000001 0.000001 -35.050051 -12.075692 -42.847983 43.223442 7.130900 -4.229214 -16.006827 -2.451754 30.485614 -0.000000 0.000000 -0.000000 0.000001 -0.000001 -0.000003 15.431482 -0.087898 -5.546206 3.215101 2.190072 -3.386326 3.093671 2.294312 -3.579109 -2.378854 -1.053885 2.186319 -2.378850 -1.053883 2.186318 -0.000000 -0.000000 -0.000001 -2.378849 -1.053898 2.186321 -2.378920 -1.053900 2.186323 -0.000001 -0.000001 -0.000000 -0.000000 -0.000000 -0.000001 4.915333 -6.168598 -7.603102 -32.820445 31.761537 -40.806682 -4.557202 -46.694424 -4.272024 -8.195272 6.546644 -5.393098 40.109938 -15.297156 -0.360497 5.639791 28.097909 11.338853 0.000001 -0.000002 -0.000003 6.882251 2.840071 -61.140432 8.247998 7.640065 -89.897871 0.000001 0.000003 -0.000001 -2.345514 4.688866 -62.655217 8.754137 9.897068 -87.051307 0.000002 0.000004 0.000003 -9.042454 10.045648 -60.766178 8.524102 9.508797 -66.893049 -0.000001 0.000001 -0.000001 -17.946911 14.755010 -51.485857 8.868417 8.667041 -84.811996 -0.000001 0.000000 -0.000000 0.000001 0.000001 -0.000003 0.000001 0.000001 -0.000003 0.000000 0.000001 -0.000003 -0.000002 -0.000002 -0.000002 -0.000001 -0.000002 -0.000002 -0.000002 -0.000002 -0.000002 -0.000003 -0.000001 -0.000003 2.054968 2.029405 8.460934 9.204179 -13.429562 58.283343 -25.937211 51.899063 20.938879 -28.246889 10.739766 -8.903800 0.984365 -3.984818 4.293585 1.023333 -25.099796 -5.052075 0.000000 -0.000003 -0.000001 0.400935 -0.485105 2.499069 -0.570763 -0.534137 8.221453 0.000001 -0.000004 -0.000001 -0.173874 -5.768867 5.130282 1.154911 -4.397099 24.729625 0.000001 -0.000001 0.000000 0.256635 -10.893622 5.859111 2.300615 -3.874943 28.334922 -0.000000 -0.000003 0.000000 0.444376 -16.968048 13.850911 4.971678 -2.557967 22.478984 -0.000001 -0.000002 0.000000 0.000001 0.000001 0.000001 0.000001 -0.000002 0.000001 0.000001 0.000001 0.000001 0.000001 -0.000002 -0.000002 0.000001 -0.000001 -0.000004 0.000001 -0.000002 -0.000002 0.000001 -0.000001 -0.000003 0.000001 0.000001 0.000000 0.000001 0.000001 0.000000 0.000001 0.000001 0.000000 0.000001 0.000001 0.000000 0.000001 0.000001 0.000000 0.000001 0.000001 0.000000 0.000001 0.000001 0.000000 -0.000003 -0.000001 -0.000000 -0.000000 -0.000000 0.000000 
-1.830439 79.625832 3.456940 26.406297 -60.914380 26.273941 -0.000000 -0.000000 0.000000 -51.097581 -1.024173 26.894273 55.749131 -5.010553 -2.478809 -13.736616 2.571432 -20.364894 0.000000 0.000002 -0.000000 0.000000 0.000000 -0.000001 -42.295048 -8.050993 -41.970167 48.669442 6.373791 -4.668541 -17.040391 -3.137002 32.184070 0.000000 0.000000 0.000000 0.000000 0.000000 0.000000 15.931601 0.423631 -6.200813 1.101218 4.076900 -1.733869 0.806353 4.293168 -2.120120 -4.250106 -2.147749 2.411568 -4.250111 -2.147747 2.411560 0.000002 0.000002 -0.000001 -4.250107 -2.147754 2.411569 -4.250111 -2.147769 2.411569 0.000001 0.000001 -0.000000 0.000002 0.000002 0.000000 7.890106 -8.462037 -2.867523 -30.936317 33.947054 -46.030315 -16.736795 -43.799520 -14.991055 -1.622977 6.269464 -5.274939 40.109938 -15.297156 -0.360504 5.639789 28.097906 11.338857 0.000000 -0.000003 -0.000001 6.882249 2.840072 -61.140438 8.248002 7.640072 -89.897871 0.000002 -0.000001 0.000001 -2.345516 4.688866 -62.655210 8.754132 9.897069 -87.051307 0.000001 0.000001 0.000000 -9.042457 10.045658 -60.766185 8.524106 9.508800 -66.893042 0.000001 0.000001 0.000002 -17.946915 14.755012 -51.485857 8.868423 8.667033 -84.811996 -0.000001 -0.000007 0.000000 0.000001 0.000004 -0.000003 0.000001 0.000004 -0.000003 -0.000000 0.000004 -0.000003 -0.000003 0.000002 0.000001 -0.000003 0.000002 -0.000001 -0.000003 0.000002 0.000001 -0.000004 0.000003 0.000000 6.969042 -0.154315 4.654313 17.067425 -20.379975 62.049974 -59.288590 68.423469 50.158235 -29.039376 11.945909 -1.702257 8.749040 -2.098218 -7.899518 -1.015477 -28.152441 1.911070 0.000001 -0.000001 -0.000000 1.422895 -2.312381 5.840003 -1.538024 -1.541151 14.098136 -0.000000 -0.000002 -0.000001 -1.180611 -5.648318 9.917463 0.646903 -4.778463 25.998719 -0.000001 -0.000002 -0.000001 -1.657477 -9.473914 9.138665 3.265955 -4.005242 31.099661 0.000000 -0.000001 -0.000002 -3.211923 -13.451808 18.959196 8.156934 -2.835487 29.394122 0.000000 0.000002 0.000000 0.000001 0.000000 -0.000001 -0.000001 0.000000 0.000000 0.000001 0.000000 -0.000001 0.000003 0.000003 0.000002 0.000003 0.000003 -0.000000 0.000003 0.000003 0.000002 0.000003 0.000003 0.000002 -0.000000 -0.000002 0.000002 -0.000000 -0.000002 0.000002 -0.000000 -0.000002 0.000002 -0.000000 -0.000002 0.000002 -0.000000 -0.000002 0.000002 -0.000000 -0.000002 0.000002 -0.000000 -0.000002 0.000002 0.000000 0.000000 0.000001 -0.000000 -0.000000 0.000000 
0.798975 76.281067 2.387345 34.074909 -59.983568 29.989937 -0.000001 0.000002 -0.000000 -63.831287 -5.562594 29.876794 65.982141 -7.134158 -1.029339 -14.624316 2.720792 -20.399248 -0.000000 -0.000002 0.000000 -0.000000 0.000000 0.000002 -50.751871 -4.723813 -38.729614 56.186823 5.920549 -5.160768 -17.578515 -3.845677 32.121826 0.000000 0.000000 -0.000000 0.000000 0.000000 -0.000002 17.949203 0.041528 -6.870205 2.486835 3.957146 -1.793708 2.184458 4.196615 -2.187054 -1.722052 -2.624347 1.146144 -1.722042 -2.624356 1.146160 -0.000001 0.000001 -0.000001 -1.722045 -2.624325 1.146147 -1.722116 -2.624356 1.146144 0.000001 0.000001 0.000000 -0.000001 0.000001 -0.000001 10.753037 -8.181089 -1.163420 -38.911458 31.727141 -40.871808 -28.506747 -47.741335 -26.166795 -3.569839 8.183147 1.124359 40.109941 -15.297155 -0.360504 5.639795 28.097908 11.338854 0.000001 -0.000003 -0.000001 6.882246 2.840075 -61.140438 8.247990 7.640068 -89.897871 -0.000001 0.000003 -0.000000 -2.345517 4.688870 -62.655210 8.754131 9.897069 -87.051307 -0.000000 0.000000 0.000002 -9.042458 10.045651 -60.766185 8.524103 9.508804 -66.893042 0.000000 -0.000001 0.000000 -17.946918 14.755010 -51.485860 8.868418 8.667036 -84.811989 -0.000001 -0.000003 -0.000002 -0.000000 0.000002 -0.000001 -0.000000 0.000002 -0.000001 -0.000001 0.000002 -0.000001 -0.000004 -0.000003 -0.000003 -0.000003 -0.000004 -0.000004 -0.000004 -0.000003 -0.000003 -0.000004 -0.000003 -0.000004 10.779599 4.893567 0.142603 27.672003 -26.676607 62.588015 -72.487473 67.986508 61.643413 -29.284060 13.738112 -0.651664 15.215983 -2.610873 -16.509593 -2.025893 -30.808371 6.944813 0.000001 -0.000003 0.000001 2.292025 -3.554681 8.289830 -2.106589 -2.389699 18.318359 -0.000002 -0.000000 0.000001 -1.915351 -5.681014 13.376258 0.291521 -5.069169 26.912315 -0.000000 -0.000002 -0.000000 -3.135979 -8.621333 11.566934 3.972556 -4.055060 33.097949 0.000002 -0.000001 0.000000 -6.212160 -11.479427 22.923751 10.516651 -2.582627 34.403680 -0.000004 0.000001 0.000001 0.000004 0.000003 0.000002 0.000002 0.000001 0.000000 0.000004 0.000003 0.000002 0.000002 0.000003 -0.000001 0.000001 0.000003 -0.000003 0.000002 0.000003 -0.000001 0.000002 0.000003 -0.000003 -0.000000 0.000002 -0.000001 -0.000000 0.000002 -0.000001 -0.000000 0.000002 -0.000001 -0.000000 0.000002 -0.000001 -0.000000 0.000002 -0.000001 -0.000000 0.000002 -0.000001 -0.000000 0.000002 -0.000001 -0.000000 0.000001 -0.000002 -0.000001 0.000002 -0.000000 
